<svg width="135" height="35" viewBox="0 0 135 35" fill="none" xmlns="http://www.w3.org/2000/svg">
<path d="M76.5577 32.7036C76.5577 32.3696 76.2998 21.1173 76.3511 16.6212V13.1016L77.0978 12.9225C77.6015 12.85 78.113 12.85 78.6167 12.9225C79.1737 12.866 79.734 12.9923 80.2125 13.2822C80.4517 13.4469 80.6815 13.6249 80.9008 13.8152C81.1199 14.0063 81.3282 14.2095 81.5249 14.4236C81.7202 14.6381 81.9038 14.8631 82.0748 15.0974C82.589 15.8035 82.9788 16.5919 83.2276 17.4286C83.3103 17.7089 83.3774 17.9937 83.4285 18.2814C83.4795 18.5669 83.5142 18.8549 83.5325 19.1443C83.7206 21.015 83.7206 22.8997 83.5325 24.7704C83.3769 27.49 82.3249 30.082 80.5403 32.1436C80.034 32.6227 79.3987 32.9443 78.7122 33.0689C78.1937 33.1596 77.6633 33.1596 77.1448 33.0689C76.6561 33.0689 76.6561 32.914 76.6561 32.7093L76.5577 32.7036ZM83.3002 10.0199C82.5742 9.92608 81.8391 9.92608 81.1131 10.0199C79.7188 10.0174 78.3405 10.3151 77.0721 10.8927L76.2742 11.2267V5.65174C76.4138 3.7704 76.4138 1.88134 76.2742 0C75.965 0 66.1334 1.87633 65.9795 1.95309C65.9415 2.04703 65.9221 2.14745 65.9225 2.24876C65.922 2.34962 65.9414 2.44959 65.9795 2.543C65.9795 3.08315 65.9795 3.05757 67.1379 3.31485C67.4631 3.3873 67.7754 3.50855 68.0641 3.67449C68.566 4.14625 68.8997 4.76867 69.0145 5.44705C69.3094 7.40158 69.4049 9.38091 69.2995 11.3547V33.9104L69.9948 34.0654C71.0236 34.2957 73.9317 34.7846 74.8849 34.887C76.7865 35.0377 78.6971 35.0377 80.5987 34.887C80.8609 34.8605 81.1216 34.8249 81.3809 34.7804C81.6417 34.7363 81.8996 34.6823 82.1561 34.6212C82.4125 34.56 82.6662 34.489 82.9169 34.4094C83.1677 34.3298 83.4171 34.2431 83.6636 34.1464C83.9101 34.0497 84.1509 33.946 84.3888 33.8337C84.6268 33.7214 84.8619 33.602 85.0927 33.4741C85.3235 33.3461 85.5487 33.2097 85.7695 33.0661C85.9904 32.9225 86.2055 32.7718 86.4164 32.6141C86.6273 32.4563 86.8325 32.29 87.032 32.118C87.2314 31.946 87.4252 31.7683 87.6133 31.5835C87.8014 31.3987 87.9809 31.2068 88.1562 31.0149C88.3314 30.823 88.4982 30.6141 88.6592 30.4065C88.8202 30.199 88.9726 29.9801 89.1194 29.764C89.2662 29.548 89.4044 29.322 89.534 29.0931C89.6637 28.8642 89.7877 28.6325 89.9031 28.3952C90.0185 28.1578 90.1254 27.9176 90.2237 27.6745C90.6983 26.4144 91.0267 25.1043 91.2026 23.7697C91.3562 21.9618 91.2955 20.142 91.0216 18.3483C90.9874 18.0995 90.9447 17.8507 90.8905 17.6048C90.8364 17.3589 90.7751 17.1158 90.7024 16.8742C90.6298 16.6325 90.55 16.3937 90.4602 16.1635C90.3704 15.9332 90.2707 15.6972 90.1638 15.4684C90.057 15.2395 89.9387 15.0178 89.8147 14.7989C89.6908 14.58 89.5568 14.3724 89.4144 14.1578C89.2719 13.9431 89.1294 13.747 88.9684 13.5494C88.8074 13.3518 88.6463 13.1613 88.4754 12.9808C88.3044 12.8003 88.1263 12.6183 87.941 12.4463C87.7558 12.2743 87.5649 12.1123 87.3711 11.9545C87.1773 11.7967 86.9707 11.6503 86.7612 11.5082C86.5518 11.366 86.3338 11.2338 86.1201 11.1102C85.9063 10.9865 85.6769 10.8685 85.4489 10.7605C85.221 10.6524 84.9887 10.5544 84.7536 10.4648C84.5185 10.3753 84.2791 10.2928 84.0412 10.2217C83.8032 10.1507 83.5553 10.0796 83.3088 10.0341L83.3002 10.0199ZM36.9734 33.14C34.4001 33.9104 32.4694 31.4186 31.8254 26.1748C31.5889 23.4317 31.5889 20.6734 31.8254 17.9303C32.3412 13.7171 33.6535 11.5849 35.6868 11.5849C35.8912 11.5719 36.0965 11.5838 36.2981 11.6205C36.4997 11.656 36.6963 11.7157 36.8837 11.7982C37.2593 11.9644 37.5899 12.2172 37.8483 12.5359C39.5724 14.2573 40.4216 17.6731 40.4216 22.8117C40.6358 25.7193 40.1781 28.6371 39.0837 31.3404C38.6008 32.129 37.853 32.7209 36.9734 33.0107V33.1386V33.14ZM47.6799 20.2957C47.5465 17.5253 46.4152 14.896 44.4939 12.8913C43.861 12.2268 43.1507 11.6403 42.378 11.1443C41.9194 10.8975 41.447 10.6773 40.9631 10.4847C39.0182 9.71566 36.9201 9.41094 34.8361 9.59488C33.7975 9.68752 32.7732 9.90076 31.7841 10.2303C31.29 10.395 30.8062 10.5887 30.335 10.8102C29.0086 11.5091 27.8296 12.4565 26.8626 13.6006C25.8962 14.7471 25.1621 16.0698 24.701 17.4954C23.7344 20.713 23.7344 24.1427 24.701 27.3603C25.2079 29.1186 26.1558 30.7189 27.4553 32.0099C28.2584 32.7932 29.1832 33.4418 30.1939 33.9303C31.2023 34.4165 32.2823 34.738 33.3927 34.8827C34.8317 35.0035 36.2783 35.0035 37.7172 34.8827C38.2457 34.8019 38.7691 34.6904 39.2846 34.5487C39.5439 34.4762 39.8018 34.3937 40.0554 34.3028C40.3091 34.2118 40.5613 34.1123 40.8092 34.0043C41.0571 33.8962 41.2993 33.7782 41.5387 33.6532C41.7781 33.5281 42.0118 33.393 42.2412 33.2509C42.4706 33.1087 42.6943 32.9581 42.9137 32.8003C43.1332 32.6425 43.3412 32.4762 43.5535 32.3028C43.7658 32.1293 43.961 31.9502 44.1548 31.7626C44.3486 31.575 44.5367 31.3817 44.7176 31.1798C44.8986 30.978 45.071 30.7733 45.2377 30.5601C45.4044 30.3468 45.5611 30.1336 45.7122 29.9048C45.8632 29.6759 45.9971 29.4513 46.1396 29.2182C46.2821 28.9851 46.399 28.7448 46.5158 28.5075C46.6326 28.2701 46.7424 28.0185 46.8421 27.7669C46.9418 27.5153 47.033 27.2623 47.1142 27.0064C47.1955 26.7505 47.2681 26.489 47.3323 26.2274C47.3964 25.9659 47.4491 25.7001 47.4947 25.4343C47.7544 23.7342 47.8165 22.0099 47.6799 20.2957ZM65.0249 9.50533C64.1351 9.47039 63.2504 9.65597 62.4501 10.0455C61.5865 10.4641 60.7991 11.0238 60.1205 11.7015C59.4436 12.3789 58.8859 13.165 58.4705 14.027L58.1356 14.6439V9.50533H58.0059C57.6982 9.50533 48.1743 11.4072 47.8666 11.5352C47.5588 11.6631 47.66 11.6887 47.66 12.1521C47.66 12.6155 47.66 12.6908 47.8666 12.7207L48.864 12.9268C49.0039 12.93 49.143 12.949 49.2786 12.9837C49.4141 13.0164 49.5455 13.0641 49.6705 13.1258C49.7948 13.1901 49.9114 13.2683 50.0181 13.3589C50.1245 13.4496 50.2201 13.5521 50.3031 13.6645C50.9457 14.5174 51.074 16.0028 51.074 22.3483C51.2034 25.2046 51.0842 28.0668 50.7177 30.9026C50.6963 31.0087 50.6663 31.1128 50.628 31.2139C50.5885 31.3161 50.5408 31.415 50.4855 31.5096C50.4326 31.6037 50.3731 31.694 50.3074 31.7797C50.2403 31.8651 50.167 31.9454 50.0879 32.0199C50.0094 32.0942 49.9251 32.1622 49.8357 32.2232C49.7451 32.2844 49.6498 32.3386 49.5508 32.3852C49.4533 32.432 49.3523 32.471 49.2487 32.5018C49.145 32.5342 49.0387 32.5575 48.931 32.5714L48.0689 32.7505H47.7341V33.4698C47.641 33.7094 47.641 33.975 47.7341 34.2146H62.1252V33.4698C62.1765 33.2241 62.1765 32.9706 62.1252 32.7249C61.2591 32.6913 60.3978 32.5795 59.5519 32.3909C59.4376 32.3311 59.328 32.2627 59.2242 32.1862C59.0154 32.0338 58.8309 31.8507 58.6771 31.6432C58.6006 31.5437 58.5315 31.4387 58.4705 31.3291C58.3507 31.1005 58.2648 30.8558 58.2154 30.6027C58.1926 30.4759 58.1783 30.3476 58.1727 30.2189C58.1686 30.0903 58.1738 29.9615 58.1883 29.8337C57.9817 28.3426 57.8791 23.9758 57.9304 20.6368C57.9817 17.2978 57.9304 17.0917 58.2154 16.86C58.4291 16.6991 58.6559 16.5564 58.8936 16.4335C59.1323 16.3102 59.3812 16.2075 59.6374 16.1265C60.1507 15.9645 60.6883 15.8928 61.2262 15.9147C62.2481 15.9377 63.2513 16.1924 64.16 16.6596C64.4726 16.8341 64.8084 16.9638 65.1574 17.0448C65.1574 17.0448 67.7321 10.8159 67.7321 10.533C67.4019 10.1525 66.9824 9.85951 66.511 9.68017C66.0379 9.49959 65.5271 9.4395 65.0249 9.50533ZM102.037 19.2466H100.236V17.7257C100.828 13.8465 102.295 11.5352 104.096 11.5352C105.897 11.5352 106.671 13.8209 107.004 18.0085V19.1912H105.461L102.037 19.2466ZM109.219 10.3582C108.835 10.195 108.442 10.0526 108.043 9.93177C107.644 9.81217 107.239 9.71349 106.829 9.63611C106.01 9.48234 105.176 9.41421 104.343 9.43283C103.926 9.44325 103.51 9.47504 103.096 9.52807C102.683 9.58211 102.273 9.65754 101.868 9.75408C101.057 9.94837 100.268 10.2266 99.5153 10.5842C98.8091 10.9307 98.1406 11.3489 97.5204 11.8323C97.211 12.0747 96.9142 12.3328 96.6313 12.6055C96.348 12.8784 96.0793 13.166 95.8263 13.4669C95.0657 14.3715 94.4527 15.3899 94.0096 16.4847C93.8614 16.8486 93.733 17.2201 93.6248 17.5977C93.0683 19.2511 92.8323 20.995 92.9295 22.7363C92.9108 23.6836 92.9882 24.6304 93.1603 25.5622C93.213 25.8465 93.2743 26.1308 93.3484 26.408C93.4225 26.6851 93.5052 26.9637 93.5992 27.2367C93.6932 27.5096 93.7972 27.7797 93.9112 28.0441C94.0252 28.3085 94.1506 28.57 94.2845 28.8259C94.4185 29.0817 94.5695 29.3333 94.712 29.5778C94.8545 29.8223 95.0269 30.0611 95.1993 30.2886C95.3717 30.516 95.5513 30.7463 95.7394 30.9652C95.9274 31.1841 96.1255 31.3916 96.3307 31.6006C96.5358 31.8095 96.7482 32 96.9676 32.1876C97.187 32.3753 97.415 32.5558 97.6487 32.7264C97.8823 32.8969 98.1217 33.059 98.3611 33.2111C98.6005 33.3632 98.8584 33.5067 99.1149 33.6375C99.3713 33.7683 99.6335 33.8934 99.9 34.0071C100.166 34.1208 100.436 34.2246 100.709 34.3184C100.983 34.4122 101.261 34.4932 101.541 34.5657C101.822 34.6382 102.111 34.6994 102.396 34.7505C103.892 34.9382 105.405 34.9382 106.9 34.7505C108.453 34.4797 109.939 33.9126 111.276 33.0803C112.383 32.4604 113.32 31.5782 114.005 30.5117C113.96 30.3441 113.883 30.187 113.777 30.0497C113.671 29.9127 113.538 29.7986 113.386 29.7143C113.092 29.8205 112.815 29.9679 112.563 30.1521C112.245 30.3608 111.912 30.5447 111.565 30.7022C110.872 31.0166 110.134 31.2227 109.378 31.3134C109 31.3577 108.619 31.3729 108.238 31.3589C107.732 31.3922 107.223 31.3702 106.721 31.2935C106.47 31.2538 106.222 31.2011 105.977 31.1357C105.732 31.069 105.491 30.9893 105.255 30.8969C105.018 30.8039 104.788 30.6976 104.564 30.5785C104.339 30.4603 104.121 30.3298 103.911 30.1876C103.701 30.0446 103.5 29.8904 103.307 29.7256C103.114 29.5611 102.93 29.386 102.757 29.2011C102.218 28.7024 101.773 28.1106 101.445 27.4542C100.645 25.8567 100.214 24.1009 100.184 22.3156V21.3205H114.442V20.8102C114.474 20.2971 114.474 19.7825 114.442 19.2694C114.441 18.8181 114.409 18.3675 114.348 17.9204C114.288 17.4733 114.198 17.0307 114.079 16.5956C113.961 16.1599 113.814 15.7325 113.639 15.3163C113.288 14.4839 112.829 13.7011 112.274 12.9879C111.718 12.2751 111.071 11.6385 110.349 11.0945C109.989 10.8231 109.611 10.5757 109.219 10.3539V10.3582ZM133.463 23.6389C133.162 23.1554 132.818 22.7005 132.434 22.28C132.05 21.8592 131.628 21.4743 131.173 21.1301C130.262 20.4409 129.233 19.9244 128.135 19.6063C126.438 19.0769 124.869 18.2017 123.529 17.0362C123.378 16.8915 123.246 16.7287 123.135 16.5515C122.912 16.1961 122.78 15.7914 122.751 15.3731C122.735 15.1651 122.746 14.956 122.782 14.7505C122.782 14.5505 122.802 14.351 122.842 14.1549C122.921 13.7614 123.077 13.3874 123.302 13.0547C123.413 12.8883 123.54 12.7335 123.682 12.5927C123.779 12.491 123.883 12.396 123.993 12.3085C124.102 12.2209 124.217 12.1411 124.338 12.0697C124.458 11.9972 124.583 11.9335 124.713 11.8792C124.842 11.8227 124.975 11.7752 125.11 11.737C125.245 11.6991 125.383 11.6711 125.522 11.6532C125.661 11.6344 125.801 11.6249 125.941 11.6247C126.081 11.6248 126.221 11.6347 126.36 11.6546C126.499 11.673 126.637 11.7015 126.772 11.7399C127.051 11.8196 127.324 11.9174 127.591 12.0327C127.858 12.1486 128.116 12.283 128.365 12.435C128.613 12.5853 128.851 12.7525 129.077 12.9353C129.758 13.4847 130.319 14.1666 130.727 14.9396C130.864 15.196 130.982 15.4615 131.082 15.7342C131.182 16.0064 131.264 16.2852 131.327 16.5686C131.739 17.7242 131.79 17.7242 132.537 17.4215L133 17.2409V10.8443L132.665 10.6908C130.131 9.80184 127.444 9.43434 124.764 9.61052C124.193 9.62589 123.625 9.69298 123.067 9.81094C121.382 10.1706 119.831 10.9911 118.587 12.1805C117.831 12.8866 117.238 13.7492 116.852 14.7079C116.659 15.1857 116.519 15.6827 116.434 16.1905C116.349 16.6984 116.32 17.2142 116.347 17.7285C116.352 18.1186 116.393 18.5074 116.47 18.8898C116.705 20.0431 117.27 21.1034 118.098 21.9417C118.707 22.5416 119.389 23.0635 120.127 23.4954C120.864 23.9289 121.652 24.2703 122.473 24.5117C126.462 26.0753 127.621 27.0803 127.621 28.904C127.625 29.0942 127.613 29.2845 127.585 29.4726C127.557 29.6612 127.513 29.8472 127.454 30.0284C127.336 30.3914 127.157 30.7317 126.924 31.0348C126.575 31.4918 126.115 31.8528 125.588 32.0839C125.413 32.1602 125.232 32.222 125.047 32.2686C124.149 32.4677 123.217 32.4677 122.319 32.2686C122.026 32.155 121.741 32.024 121.464 31.8763C121.186 31.7293 120.918 31.5656 120.66 31.3859C120.402 31.207 120.155 31.0129 119.921 30.8045C119.451 30.3875 119.032 29.916 118.674 29.4001C118.495 29.1431 118.332 28.8754 118.185 28.5984C118.038 28.3222 117.907 28.0374 117.793 27.7456C117.681 27.4527 117.586 27.1537 117.508 26.85L117.174 26.0284H116.711C116.49 26.0451 116.273 26.0969 116.068 26.1819H115.81V33.4783H116.247C117.984 34.0537 119.775 34.4481 121.592 34.6553H124.165C125.282 34.7387 126.405 34.6344 127.487 34.3468C127.828 34.2842 128.165 34.1992 128.496 34.0924C128.826 33.9856 129.149 33.8578 129.463 33.71C129.777 33.5612 130.081 33.3922 130.372 33.204C130.664 33.0165 130.944 32.8099 131.209 32.5856C131.738 32.1361 132.208 31.6206 132.606 31.0519C132.804 30.7669 132.984 30.4697 133.144 30.162C133.303 29.8538 133.442 29.5357 133.56 29.2097C133.869 28.4778 134.027 27.6912 134.024 26.8969C134.074 26.3405 134.051 25.78 133.956 25.2296C133.863 24.6786 133.697 24.1423 133.463 23.6347V23.6389ZM13.0171 3.26368H15.9509C17.7363 3.00199 19.5595 3.23253 21.2229 3.93035C23.3104 5.18635 24.8248 7.20458 25.4448 9.5565C25.8823 10.7903 25.8823 10.7903 26.9367 10.3539H27.7602V0.59133H0.143415V2.31272H1.28331C1.77554 2.30969 2.26228 2.41603 2.70818 2.62402C2.92997 2.72905 3.13969 2.85773 3.3337 3.00782C3.5273 3.15808 3.70321 3.32975 3.85805 3.51954C4.91245 5.21535 5.09341 7.11585 5.09341 17.0064C5.09341 27.5139 4.86115 30.0839 3.85805 31.393C3.73351 31.5614 3.59009 31.7149 3.43059 31.8507C3.27221 31.9865 3.09922 32.1042 2.91478 32.2018C2.54558 32.3985 2.13619 32.5084 1.7179 32.5231C0.150542 32.8074 0.150542 32.7804 0.150542 33.4741C0.0631821 33.7059 0.0631821 33.9615 0.150542 34.1933H17.5667C17.6822 33.9665 17.7424 33.7157 17.7424 33.4613C17.7424 33.2068 17.6822 32.956 17.5667 32.7292C17.1463 32.6117 16.7176 32.5257 16.2843 32.4719C15.8141 32.4164 15.3493 32.3213 14.8951 32.1876C14.5705 31.9519 14.2783 31.6747 14.0259 31.3632C13.8993 31.2083 13.7837 31.045 13.6797 30.8742C13.4693 30.5327 13.3045 30.1652 13.1895 29.7811C13.1317 29.5895 13.0864 29.3944 13.0542 29.1969C12.9891 28.8013 12.9762 28.3989 13.0157 28C12.7592 26.3056 12.6296 23.1969 12.6296 20.6283V18.5999H13.6597C14.9422 18.5599 16.2241 18.6982 17.4684 19.0107C18.3681 19.5652 19.0578 20.4022 19.429 21.3902C19.5513 21.7172 19.6373 22.0566 19.6855 22.4023L19.9163 23.1983H21.4837V11.818H20.0374L19.8066 12.9225C19.7581 13.2758 19.6682 13.6222 19.5387 13.9545C19.2792 14.62 18.8668 15.2154 18.3347 15.693C18.07 15.9318 17.7778 16.1385 17.4641 16.3085C16.8557 16.491 16.214 16.5352 15.5862 16.4378H12.6253V13.6674C12.6253 10.7903 12.7806 4.72779 12.8832 3.77683L13.0171 3.26368Z" fill="#808080"/>
</svg>
