<svg width="179" height="35" viewBox="0 0 179 35" fill="none" xmlns="http://www.w3.org/2000/svg">
<path d="M0.31156 23.7562L2.56441 23.3978V2.581L0.0498657 2.25482L0.180713 0H15.9222L15.5297 6.30743L12.395 6.20882L12.1997 2.25482H7.33369V11.6325H9.45569L9.94495 9.47632L12.1333 9.5427V16.0132H9.94495L9.42345 13.7906H7.29956V23.724H12.1997L12.6567 19.4116L15.9544 19.5083L16.2161 26.0774H0.212951L0.31156 23.7562Z" fill="#808080"/>
<path d="M17.6858 26.1115L17.7844 24.1829L19.548 23.8226V10.6862L17.4962 10.4833V8.52999L22.6561 7.77143L23.0487 8.88083V9.63939C24.2889 8.33277 25.7908 7.55334 27.7174 7.55334C30.5278 7.55334 32.6176 9.26011 32.6176 12.6186V23.7941L34.4779 24.1544L34.3736 26.0774H28.2351V13.5953C28.2351 11.7975 27.5828 10.7848 25.9482 10.7848C25.4783 10.7804 25.0123 10.8694 24.5771 11.0465C24.2986 11.3057 24.0447 11.5901 23.8186 11.8961V23.8567L25.6808 24.2151L25.5499 26.1438H17.6858V26.1115Z" fill="#808080"/>
<path d="M116.35 26.1115L116.417 24.1829L118.18 23.8226V10.6862L116.123 10.4966V8.52999L121.283 7.77143L121.673 8.88083V9.63939C122.915 8.33277 124.417 7.55334 126.344 7.55334C129.152 7.55334 131.242 9.26011 131.242 12.6186V23.7941L133.104 24.1544L133.006 26.0812H126.9V13.5953C126.9 11.7975 126.245 10.7848 124.613 10.7848C124.143 10.7804 123.677 10.8694 123.242 11.0465C122.963 11.3057 122.709 11.5901 122.483 11.8961V23.8567L124.345 24.2151L124.214 26.1438H116.35V26.1115Z" fill="#808080"/>
<path d="M44.206 25.7513C43.036 26.1842 41.7953 26.3945 40.548 26.3714C38.3596 26.3714 36.3343 25.3909 36.3343 22.1993V10.6862L34.2484 10.3601L34.347 8.07299L36.6984 7.97438L37.7092 4.47741L40.7149 4.34656V8.10523H43.9481L43.7187 10.3923L40.7471 10.7185V22.222C40.7471 23.1702 41.2705 23.7904 42.249 23.7904H44.0126L44.206 25.7513Z" fill="#808080"/>
<path d="M166.45 26.1115L166.516 24.2151L168.181 23.8226V10.6862L166.222 10.4966V8.53L171.577 7.77144L171.938 9.04582V9.47062C173.341 8.4238 175.235 7.7373 177.522 7.7373L178.305 8.4238L177.75 13.3905L174.81 13.2938L174.517 10.6388C173.839 10.7135 173.189 10.9489 172.62 11.3253V23.8416L174.482 24.2322L174.352 26.1286H166.45V26.1115Z" fill="#808080"/>
<path d="M89.5361 26.1115L89.6347 24.2151L91.2996 23.8226V10.6862L89.3407 10.4966V8.53L94.6979 7.77144L95.0563 9.04582V9.47062C96.4615 8.4238 98.354 7.7373 100.641 7.7373L101.424 8.4238L100.804 13.3905L97.8648 13.2938L97.5708 10.6388C96.893 10.7132 96.2428 10.9485 95.6745 11.3253V23.8416L97.5367 24.2322L97.4058 26.1286H89.5361V26.1115Z" fill="#808080"/>
<path d="M45.5126 26.1115L45.6093 24.2151L47.2762 23.8226V10.6862L45.3154 10.4966V8.53L50.6726 7.77144L51.031 9.04582V9.47062C52.4361 8.4238 54.3306 7.7373 56.5834 7.7373L57.3666 8.4238L56.8129 13.3905L53.8736 13.2938L53.5796 10.6388C52.9018 10.7129 52.2515 10.9483 51.6833 11.3253V23.8416L53.5436 24.2322L53.4128 26.1286H45.5126V26.1115Z" fill="#808080"/>
<path d="M62.3634 16.0132L67.8514 15.7515C67.749 13.5631 67.2958 10.104 65.1397 10.104C64.6182 10.104 64.2579 10.2027 63.6055 10.5288C62.7238 12.027 62.3634 14.7388 62.3634 16.0132ZM62.4298 18.0993C62.4298 21.2359 63.8009 23.6538 66.5126 23.6538C67.9159 23.6538 69.0272 23.3599 70.3337 22.7398L71.0923 24.4712C69.7535 25.5502 67.7927 26.3676 65.3445 26.3676C60.5752 26.3676 57.8312 22.2505 57.8312 16.9576C57.8312 12.448 59.8243 7.51355 65.2781 7.51355C70.0474 7.51355 71.8432 11.9246 71.8432 16.8268L71.3862 18.0026L62.4298 18.0993Z" fill="#808080"/>
<path d="M138.264 16.0132L143.752 15.7515C143.654 13.5631 143.197 10.0983 141.041 10.0983C140.519 10.0983 140.159 10.197 139.506 10.5231C138.625 12.027 138.264 14.7388 138.264 16.0132ZM138.331 18.0993C138.331 21.2359 139.702 23.6538 142.413 23.6538C143.817 23.6538 144.928 23.3599 146.235 22.7398L146.993 24.4712C145.654 25.5502 143.694 26.3676 141.245 26.3676C136.476 26.3676 133.732 22.2505 133.732 16.9576C133.732 12.448 135.725 7.51355 141.179 7.51355C145.948 7.51355 147.744 11.9246 147.744 16.8268L147.287 18.0026L138.331 18.0993Z" fill="#808080"/>
<path d="M106.389 16.0132L111.877 15.7515C111.778 13.5631 111.321 10.0983 109.165 10.0983C108.644 10.0983 108.283 10.197 107.631 10.5231C106.749 12.027 106.357 14.7388 106.389 16.0132ZM106.455 18.0993C106.455 21.2359 107.826 23.6538 110.536 23.6538C111.864 23.6582 113.175 23.3448 114.357 22.7398L115.116 24.4712C113.775 25.5502 111.816 26.3676 109.366 26.3676C104.599 26.3676 101.855 22.2505 101.855 16.9576C101.855 12.448 103.848 7.51355 109.302 7.51355C114.069 7.51355 115.867 11.9246 115.867 16.8268L115.41 18.0026L106.455 18.0993Z" fill="#808080"/>
<path d="M160.082 26.1116L159.625 24.5414C158.417 25.6792 157.241 26.3714 155.411 26.3714C152.602 26.3714 150.088 24.9661 150.088 21.0785V10.2292L148.03 10.0396V8.30625L153.974 7.61975L154.431 9.18997V20.5684C154.431 22.5615 155.248 23.6026 156.848 23.6026C157.382 23.6059 157.913 23.5173 158.417 23.3409C158.724 23.0332 158.997 22.6937 159.232 22.3282V10.2292L157.11 10.0396V8.30625L163.12 7.61975L163.577 9.18997V23.8283L165.437 24.1886L165.209 26.1173L160.082 26.1116Z" fill="#808080"/>
<path d="M88.0664 16.5366C88.0664 11.0143 86.4336 7.54956 82.3527 7.54956C79.641 7.54956 78.3704 9.11789 77.8451 9.77214V9.15581L77.3881 7.58749L72.0632 8.34605V10.2425L74.1207 10.4833V32.7774L72.3571 33.1358L72.2604 35H80.1302L80.2611 33.1358L78.4008 32.7774V25.719C79.3076 26.1903 80.3183 26.4263 81.3401 26.4055C88.0019 26.4131 88.0664 19.641 88.0664 16.5366ZM80.7522 23.7581C79.804 23.7581 79.0455 23.595 78.4652 23.2669V11.733C78.7226 11.3532 79.0071 10.9926 79.3167 10.654C79.8409 10.4697 80.3939 10.381 80.9494 10.3923C83.3995 10.3923 83.8243 12.8766 83.8243 17.3198C83.8243 21.6019 83.17 22.7777 83.007 23.2669C82.3033 23.6023 81.5316 23.7704 80.7522 23.7581Z" fill="#808080"/>
</svg>
