<svg width="126" height="35" viewBox="0 0 126 35" fill="none" xmlns="http://www.w3.org/2000/svg">
<path d="M82.624 24.851V11.7595C82.624 8.35491 79.9316 5.85486 76.2134 5.85486C73.4783 5.85486 71.0636 7.15831 68.9268 9.77945H68.6419L68.3641 6.7167C68.3373 6.50285 68.2274 6.30816 68.058 6.17483C67.8887 6.0415 67.6737 5.98028 67.4595 6.00443H67.3669L59.0189 7.84921C58.9664 7.8602 58.9166 7.88148 58.8724 7.91183C58.8282 7.94218 58.7904 7.98099 58.7612 8.02603C58.7321 8.07107 58.7122 8.12143 58.7026 8.17421C58.693 8.227 58.694 8.28115 58.7055 8.33355C58.7214 8.39249 58.748 8.44802 58.7839 8.49737L60.4934 10.6983V24.851L59.1187 26.7812C59.0868 26.8252 59.064 26.875 59.0514 26.9278C59.0389 26.9806 59.0368 27.0353 59.0454 27.0889C59.054 27.1425 59.0731 27.1938 59.1016 27.24C59.13 27.2862 59.1673 27.3264 59.2113 27.3582C59.2843 27.4093 59.3714 27.4366 59.4605 27.4365H69.924C70.0335 27.4365 70.1386 27.393 70.2161 27.3155C70.2936 27.2381 70.3371 27.133 70.3371 27.0234C70.3362 26.9366 70.3089 26.8521 70.2588 26.7812L68.8912 24.9009V11.3678C69.7105 10.8248 70.6652 10.5214 71.6477 10.4917C73.2717 10.4917 74.219 11.4746 74.219 13.177V24.6872L72.7945 26.7812C72.7346 26.8721 72.713 26.9829 72.7343 27.0896C72.7557 27.1963 72.8182 27.2902 72.9084 27.3511C72.9774 27.3989 73.0596 27.4239 73.1435 27.4223H83.6425C83.6961 27.4242 83.7495 27.4153 83.7996 27.3961C83.8496 27.3769 83.8953 27.3479 83.9339 27.3106C83.9724 27.2734 84.0031 27.2288 84.024 27.1794C84.0449 27.1301 84.0557 27.077 84.0557 27.0234C84.0614 26.9335 84.0335 26.8446 83.9773 26.7741L82.624 24.851Z" fill="#808080"/>
<path d="M46.3758 5.86908C40.2502 5.86908 34.0248 9.56574 34.0248 16.9519C34.0248 24.3381 40.2502 28.0277 46.3758 28.0277C52.5014 28.0277 58.7268 24.331 58.7268 16.9519C58.7268 9.57286 52.5014 5.86908 46.3758 5.86908ZM46.3758 26.2043C44.0965 26.2043 42.5936 22.0589 42.5936 16.9448C42.5936 11.8307 44.0823 7.68536 46.3758 7.68536C48.6694 7.68536 50.158 11.8307 50.158 16.9448C50.158 22.0589 48.6551 26.2043 46.3758 26.2043Z" fill="#808080"/>
<path d="M105.965 19.8722C105.987 19.7881 105.974 19.6989 105.93 19.6242C105.886 19.5494 105.814 19.4951 105.73 19.4733C105.67 19.4557 105.606 19.4564 105.547 19.4754C105.487 19.4945 105.434 19.531 105.396 19.5802C104.599 20.4433 103.637 21.1368 102.566 21.619C101.495 22.1012 100.337 22.3623 99.1631 22.3865C98.1596 22.4537 97.153 22.3139 96.2059 21.9757C95.2587 21.6375 94.3912 21.1082 93.6572 20.4207L104.826 15.271C105.031 15.174 105.197 15.0089 105.294 14.8037C105.391 14.5986 105.415 14.366 105.36 14.1456C105.107 13.2166 104.764 12.3148 104.334 11.4532C102.753 8.33349 99.8612 5.75508 95.4949 5.87617C88.3293 6.12546 84.0983 10.6626 84.3334 17.4719C84.5542 24.039 89.2482 28.2841 96.0006 28.0633C101.984 27.8354 104.797 24.5019 105.973 19.8722M93.3438 8.38335C95.851 7.3933 98.5719 9.2167 99.2557 14.5302L92.3822 18.7183C90.167 14.9006 90.9576 9.32354 93.3438 8.38335Z" fill="#808080"/>
<path d="M32.294 24.3168V2.94878L33.9537 0.698021C34.0194 0.61099 34.0481 0.501487 34.0334 0.393403C34.0187 0.28532 33.9619 0.187428 33.8753 0.121084C33.804 0.0656653 33.7163 0.0355902 33.626 0.0356128H25.3493C25.2044 0.0383179 25.0627 0.0784319 24.9379 0.152064C24.8131 0.225696 24.7094 0.330346 24.637 0.45585L17.4002 13.3265L10.6193 0.441605C10.5469 0.314346 10.4438 0.207253 10.3194 0.13011C10.1949 0.0529673 10.0532 0.00823547 9.90699 0H0.711427C0.603748 0 0.500481 0.0427721 0.424341 0.11891C0.348201 0.195049 0.305426 0.298316 0.305426 0.405992C0.305085 0.470204 0.319717 0.53361 0.348162 0.59118L2.15024 4.15251V23.69L0.369531 26.8168C0.343284 26.8655 0.326885 26.9188 0.321272 26.9738C0.31566 27.0287 0.320944 27.0843 0.336822 27.1372C0.352701 27.1901 0.378862 27.2394 0.413808 27.2822C0.448755 27.325 0.491798 27.3605 0.540478 27.3866C0.600138 27.4172 0.665803 27.4342 0.732794 27.4365H7.27867C7.33295 27.4404 7.38746 27.4335 7.43907 27.4162C7.49068 27.399 7.53837 27.3717 7.57941 27.336C7.62044 27.3002 7.65401 27.2567 7.67819 27.208C7.70237 27.1592 7.71667 27.1062 7.72029 27.0519C7.72435 26.9912 7.71497 26.9304 7.69281 26.8737C7.67064 26.8171 7.63625 26.766 7.59208 26.7242L4.89965 23.6615V8.11271L13.3402 24.9934C13.3952 25.0876 13.4853 25.1562 13.5907 25.1842C13.6961 25.2122 13.8084 25.1974 13.9029 25.143C13.966 25.1084 14.0179 25.0565 14.0525 24.9934L23.2124 8.14833V24.3168L21.503 26.7955C21.472 26.8413 21.4504 26.8927 21.4394 26.9469C21.4284 27.0011 21.4282 27.0569 21.4387 27.1111C21.4493 27.1654 21.4705 27.217 21.5011 27.2631C21.5317 27.3091 21.571 27.3487 21.6169 27.3795C21.682 27.4242 21.7588 27.449 21.8377 27.4508H33.6545C33.7097 27.4489 33.764 27.4362 33.8143 27.4134C33.8646 27.3905 33.9098 27.358 33.9475 27.3177C33.9853 27.2773 34.0146 27.2299 34.034 27.1782C34.0534 27.1265 34.0624 27.0715 34.0605 27.0163C34.0587 26.9373 34.034 26.8606 33.9893 26.7955L32.294 24.3168Z" fill="#808080"/>
<path d="M125.482 6.44599H120.361C120.277 6.44454 120.196 6.46823 120.126 6.51397C120.057 6.5597 120.003 6.62535 119.971 6.70232C119.94 6.77929 119.932 6.86399 119.949 6.94534C119.967 7.02669 120.008 7.1009 120.069 7.15825L122.106 9.29505L118.138 19.9791L114.157 8.91043L115.717 7.22235C115.794 7.14489 115.837 7.03985 115.837 6.93033C115.837 6.8208 115.794 6.71576 115.717 6.6383C115.677 6.59484 115.629 6.56077 115.574 6.53858C115.52 6.51639 115.462 6.50666 115.403 6.51009H104.349C104.239 6.51009 104.134 6.55362 104.056 6.63109C103.979 6.70856 103.935 6.81364 103.935 6.9232C103.933 6.99847 103.953 7.07277 103.992 7.13688L105.075 8.91043L113.295 28.6331C113.489 29.1162 113.486 29.6563 113.286 30.1371C113.086 30.618 112.706 31.0012 112.226 31.2044C110.246 32.0733 108.964 29.0676 107.561 28.3553C106.822 27.9397 105.952 27.8225 105.13 28.0278C104.307 28.2331 103.595 28.7453 103.138 29.4593C102.919 29.8211 102.774 30.2225 102.711 30.6405C102.648 31.0584 102.668 31.4848 102.769 31.895C102.871 32.3053 103.053 32.6914 103.305 33.0312C103.556 33.3711 103.872 33.6579 104.235 33.8754C107.91 36.0905 113.872 35.6204 117.54 27.0447L118.466 24.9079L124.485 9.49449L125.838 7.144C125.888 7.07978 125.918 7.00249 125.925 6.9215C125.932 6.8405 125.915 6.75927 125.876 6.68766C125.838 6.61605 125.779 6.55712 125.708 6.51802C125.637 6.47891 125.556 6.46132 125.475 6.46735" fill="#808080"/>
</svg>
