<svg width="127" height="35" viewBox="0 0 127 35" fill="none" xmlns="http://www.w3.org/2000/svg">
<path d="M0.92627 8.52087H8.4206L12.7837 19.7058L17.2022 8.52087H24.4975L13.5117 35H6.17104L9.17885 27.9824L0.92627 8.52087Z" fill="#808080"/>
<path d="M33.4857 14.2745C36.0829 14.2745 37.4256 16.3342 37.4256 18.1925C37.4256 20.2069 35.9872 22.1583 33.4857 22.1583C31.4125 22.1583 29.5383 20.4612 29.5383 18.2781C29.5383 16.095 31.0472 14.2745 33.4857 14.2745ZM32.0952 8.07269C26.465 8.07269 22.908 13.1338 22.908 18.1723C22.908 23.8428 26.8101 28.3374 31.9894 28.3374C35.8537 28.3374 37.3097 25.9781 37.3097 25.9781V27.8162H43.8468V8.51838H37.3123V10.281C37.3123 10.281 35.6874 8.07269 32.0977 8.07269H32.0952Z" fill="#808080"/>
<path d="M46.0988 27.8162V0H52.9357V10.3414C52.9357 10.3414 54.558 8.07518 57.9588 8.07518C62.1178 8.07518 64.5563 11.1824 64.5563 15.6291V27.8263H57.7698V17.3011C57.7698 15.7903 57.0569 14.3475 55.4396 14.3475C53.8224 14.3475 52.9357 15.8205 52.9357 17.3011V27.8263L46.0988 27.8162Z" fill="#808080"/>
<path d="M76.2726 14.3324C76.7838 14.3367 77.2891 14.4418 77.7596 14.6416C78.2301 14.8415 78.6564 15.1322 79.0143 15.4972C79.3721 15.8621 79.6544 16.294 79.8448 16.7682C80.0353 17.2424 80.1303 17.7495 80.1243 18.2604C80.1243 19.9878 78.6557 22.1205 76.2726 22.1205C75.7652 22.1213 75.2628 22.021 74.7945 21.8255C74.3263 21.6301 73.9017 21.3434 73.5455 20.9822C73.1893 20.6211 72.9087 20.1926 72.7199 19.7218C72.5311 19.251 72.4381 18.7474 72.4461 18.2403C72.4461 16.1907 73.8114 14.3324 76.2726 14.3324ZM76.2096 8.0752C69.7633 8.0752 65.9241 12.9878 65.9241 18.2529C65.9241 24.2407 70.5719 28.3374 76.2348 28.3374C81.724 28.3374 86.5254 24.427 86.5254 18.3536C86.5254 11.7061 81.4872 8.0752 76.2096 8.0752Z" fill="#808080"/>
<path d="M97.9747 14.3324C98.486 14.3367 98.9914 14.4417 99.4621 14.6416C99.9327 14.8414 100.359 15.1321 100.717 15.497C101.075 15.8619 101.358 16.2938 101.549 16.768C101.739 17.2422 101.835 17.7494 101.829 18.2604C101.829 19.9878 100.36 22.1205 97.9747 22.1205C97.4675 22.1209 96.9653 22.0204 96.4974 21.8248C96.0295 21.6292 95.6052 21.3425 95.2493 20.9813C94.8933 20.6202 94.6129 20.1918 94.4243 19.7212C94.2357 19.2506 94.1427 18.7472 94.1507 18.2403C94.1507 16.1907 95.5135 14.3324 97.9747 14.3324ZM97.9142 8.0752C91.4653 8.0752 87.6262 12.9878 87.6262 18.2529C87.6262 24.2407 92.2765 28.3374 97.9394 28.3374C103.426 28.3374 108.23 24.427 108.23 18.3536C108.23 11.7061 103.192 8.0752 97.9142 8.0752Z" fill="#808080"/>
<path d="M118.163 23.6766C118.163 23.8255 118.155 23.9742 118.14 24.1223C118.126 24.2702 118.104 24.4173 118.075 24.563C118.046 24.7092 118.01 24.8537 117.966 24.9961C117.924 25.1396 117.873 25.2806 117.818 25.4166C117.762 25.5525 117.697 25.6885 117.626 25.8194C117.557 25.951 117.48 26.0788 117.397 26.2022C117.314 26.3281 117.226 26.454 117.133 26.5622C117.039 26.6705 116.939 26.7863 116.833 26.8921C116.728 26.9979 116.618 27.0979 116.503 27.1917C116.387 27.2874 116.268 27.3756 116.145 27.4586C116.022 27.5417 115.893 27.6173 115.762 27.6878C115.631 27.7583 115.498 27.8212 115.362 27.8792C115.226 27.9371 115.082 27.9849 114.941 28.0277C114.799 28.0723 114.654 28.1093 114.508 28.1385C114.364 28.1662 114.215 28.1889 114.069 28.204C113.923 28.2191 113.772 28.2241 113.623 28.2241C113.475 28.2241 113.326 28.2241 113.178 28.204C113.029 28.1838 112.883 28.1662 112.737 28.1385C112.591 28.109 112.448 28.072 112.306 28.0277C112.162 27.9849 112.024 27.9345 111.885 27.8792C111.747 27.8238 111.616 27.7583 111.485 27.6878C111.091 27.4766 110.73 27.2084 110.414 26.8921C110.308 26.7863 110.21 26.6781 110.114 26.5622C110.019 26.4464 109.933 26.3281 109.85 26.2022C109.767 26.0788 109.69 25.951 109.621 25.8194C109.55 25.6885 109.487 25.5551 109.429 25.4166C109.371 25.2781 109.323 25.1396 109.28 24.9961C109.237 24.8537 109.201 24.7092 109.172 24.563C109.143 24.4173 109.121 24.2702 109.107 24.1223C109.076 23.826 109.076 23.5273 109.107 23.231C109.121 23.0822 109.143 22.9343 109.172 22.7878C109.201 22.6424 109.237 22.4987 109.28 22.3572C109.323 22.2137 109.374 22.0727 109.429 21.9367C109.485 21.8007 109.55 21.6648 109.621 21.5313C109.691 21.3979 109.767 21.2795 109.85 21.1486C109.933 21.0176 110.021 20.8968 110.114 20.791C110.208 20.6758 110.308 20.5657 110.414 20.4612C110.729 20.1439 111.09 19.8757 111.485 19.6655C111.616 19.595 111.749 19.532 111.885 19.4741C112.023 19.4163 112.163 19.3659 112.306 19.323C112.447 19.2802 112.593 19.245 112.737 19.2148C112.88 19.1845 113.031 19.1644 113.178 19.1493C113.474 19.1224 113.773 19.1224 114.069 19.1493C114.215 19.1644 114.364 19.1871 114.508 19.2148C114.651 19.2425 114.8 19.2802 114.941 19.323C115.084 19.3663 115.224 19.4167 115.362 19.4741C115.498 19.532 115.631 19.595 115.762 19.6655C115.893 19.736 116.014 19.8115 116.145 19.8946C116.276 19.9777 116.397 20.0658 116.503 20.1615C116.618 20.2554 116.728 20.3554 116.833 20.4612C116.938 20.5657 117.039 20.6758 117.133 20.791C117.226 20.9069 117.314 21.0252 117.397 21.1486C117.48 21.272 117.556 21.4004 117.626 21.5313C117.697 21.6622 117.76 21.7982 117.818 21.9367C117.876 22.0752 117.924 22.2137 117.966 22.3572C118.01 22.4987 118.046 22.6424 118.075 22.7878C118.104 22.9343 118.126 23.0822 118.14 23.231C118.155 23.379 118.163 23.5278 118.163 23.6766Z" fill="#808080"/>
<path d="M119.654 17.4572H111.482L118.735 0H126.876L119.654 17.4572Z" fill="#808080"/>
</svg>
