<svg width="207" height="35" viewBox="0 0 207 35" fill="none" xmlns="http://www.w3.org/2000/svg">
<path d="M135.594 35C132.398 35 130.027 34.3827 128.483 33.148C127.836 32.6516 127.313 32.012 126.955 31.2794C126.598 30.5469 126.415 29.7415 126.422 28.9266H132.813C133.107 30.1613 133.64 30.8815 135.7 30.8815C137.967 30.8815 138.894 29.6468 138.894 26.8659V24.4024H138.791C138.396 25.3911 137.692 26.2258 136.783 26.7816C135.874 27.3374 134.81 27.5846 133.749 27.4861C128.491 27.4861 125.801 24.4994 125.801 18.6318C125.678 16.1485 126.522 13.7141 128.156 11.8381C128.889 11.0786 129.77 10.4778 130.746 10.0732C131.721 9.66856 132.769 9.46882 133.825 9.48638C134.837 9.38638 135.856 9.58689 136.754 10.0628C137.652 10.5387 138.389 11.2688 138.873 12.1615H138.976V9.89794H145.275V26.2632C145.275 29.2499 144.551 31.4106 143.006 32.7482C141.358 34.2798 138.985 35 135.585 35M135.791 13.8959C133.731 13.8959 132.492 15.6597 132.492 18.6318C132.492 21.7214 133.619 23.3706 135.68 23.3706C136.525 23.3652 137.335 23.027 137.933 22.4293C138.531 21.8317 138.869 21.0228 138.873 20.178V17.8116C138.873 15.3422 137.74 13.8989 135.783 13.8989L135.791 13.8959ZM75.6058 28.8119C73.3503 29.0041 71.0965 28.4235 69.2155 27.1657C68.6028 26.6388 68.1041 25.9928 67.7499 25.267C67.3956 24.5412 67.1932 23.7508 67.155 22.9443H73.042C73.146 24.179 73.9712 24.7963 75.5175 24.7963C76.9598 24.7963 77.887 24.2819 77.887 23.253C77.887 22.4299 77.3719 22.0183 76.0326 21.8125L73.042 21.401C69.4362 20.9865 67.4759 18.9287 67.4759 15.7391C67.4624 14.9282 67.621 14.1237 67.9411 13.3784C68.2612 12.6331 68.7356 11.9639 69.3332 11.4148C71.0808 10.2092 73.1421 9.53804 75.2654 9.48322C77.3887 9.42841 79.482 9.99235 81.2897 11.1061C81.895 11.6096 82.3836 12.2383 82.7215 12.949C83.0595 13.6596 83.2388 14.4351 83.2471 15.2217H77.4602C77.4388 14.7193 77.2226 14.2448 76.8573 13.8986C76.4921 13.5525 76.0063 13.3617 75.5028 13.3668H75.3997C73.7484 13.3668 73.4394 14.087 73.4394 14.8072C73.4394 15.5274 73.7484 16.0448 75.2055 16.2506L78.3991 16.6622C79.8188 16.7378 81.1713 17.2899 82.2375 18.229C82.7433 18.7218 83.1346 19.3194 83.3838 19.9798C83.633 20.6401 83.7341 21.347 83.6798 22.0506C83.8858 26.2691 80.6921 28.8443 75.6411 28.8443L75.6058 28.8119ZM57.0618 28.709C51.0835 28.709 47.6809 25.2079 47.6809 18.9287C47.5871 16.405 48.4729 13.9427 50.1534 12.0557C51.0603 11.1675 52.1438 10.4796 53.3339 10.0365C54.524 9.5934 55.7941 9.40497 57.0618 9.48344C60.2555 9.48344 62.7309 10.4094 64.2763 12.1586C65.8286 14.1549 66.6306 16.6318 66.5428 19.158V20.5808H54.2743C54.4803 23.2588 55.3045 24.4935 57.2649 24.4935C57.8378 24.5949 58.4277 24.4688 58.9088 24.1421C59.39 23.8153 59.7242 23.3138 59.8404 22.7444H66.3426C65.9305 26.5513 62.7368 28.7149 57.0677 28.7149L57.0618 28.709ZM57.0618 13.3697C55.2957 13.3697 54.4833 14.6044 54.2772 17.0767H59.8345V16.8709C59.6285 14.5015 58.7013 13.3697 57.0529 13.3697H57.0618ZM175.278 28.6061C174.29 28.6582 173.302 28.5018 172.379 28.1473C171.455 27.7927 170.617 27.2479 169.918 26.5484C168.562 24.9818 167.861 22.955 167.958 20.8865C167.9 19.8769 168.044 18.866 168.381 17.9123C168.717 16.9586 169.24 16.081 169.918 15.3305C170.631 14.65 171.471 14.1177 172.391 13.7644C173.312 13.4111 174.293 13.244 175.278 13.2727C179.811 13.2727 182.596 16.1565 182.596 20.8895C182.596 25.6224 179.708 28.6061 175.278 28.6061ZM175.278 16.2594C172.906 16.2594 172.391 18.8317 172.391 20.9923C172.391 24.1848 173.421 25.7282 175.278 25.7282C177.136 25.7282 178.163 24.082 178.163 20.9923C178.163 17.9027 177.133 16.2594 175.278 16.2594ZM160.537 28.6061C159.549 28.6571 158.562 28.5002 157.638 28.1457C156.715 27.7912 155.877 27.247 155.177 26.5484C153.872 24.9994 153.208 23.0108 153.323 20.9894C153.323 16.2565 156.104 13.3727 160.64 13.3727C164.761 13.3727 167.237 15.4304 167.34 18.9316H163.116C163.013 17.6969 162.495 16.2565 160.64 16.2565C158.065 16.2565 157.756 19.2403 157.756 20.9894C157.756 24.1819 158.683 25.7253 160.64 25.7253C160.975 25.7287 161.308 25.6663 161.619 25.5414C161.93 25.4165 162.213 25.2317 162.453 24.9975C162.692 24.7633 162.883 24.4843 163.014 24.1763C163.146 23.8684 163.215 23.5377 163.219 23.203V22.8444H167.34C167.344 23.665 167.171 24.4769 166.833 25.2251C166.496 25.9732 166.001 26.6401 165.382 27.1804C163.954 28.1483 162.26 28.6505 160.534 28.6179M91.271 28.518C89.6799 28.6535 88.0966 28.1807 86.8411 27.1951C86.2279 26.5542 85.7544 25.7933 85.4504 24.9605C85.1465 24.1277 85.0186 23.241 85.075 22.3564V4.85048H91.4771V9.89499H95.3036V14.4221H91.5801V21.1158C91.5801 23.0707 92.2012 23.7909 93.9526 23.7909C94.3673 23.808 94.7826 23.7734 95.1888 23.688V28.3092C93.8495 28.4121 92.6133 28.515 91.271 28.515M197.746 28.2064H193.419V19.6607C193.492 18.8494 193.35 18.0333 193.007 17.2942C192.808 16.9935 192.527 16.7558 192.198 16.6089C191.868 16.4621 191.504 16.4122 191.147 16.4652C189.381 16.4652 188.365 17.6999 188.365 19.7577V28.2005H184.038V13.6901H188.159V16.0595C188.575 15.2223 189.226 14.5234 190.031 14.0471C190.836 13.5708 191.763 13.3376 192.698 13.3756C195.17 13.3756 196.613 14.4045 197.231 16.3623H197.328C197.724 15.4442 198.388 14.6672 199.235 14.1341C200.081 13.6009 201.07 13.3364 202.07 13.3756C205.37 13.3756 206.915 15.1394 206.915 18.7288V28.2005H202.591V19.6607C202.664 18.8494 202.521 18.0333 202.179 17.2942C201.98 16.9953 201.7 16.7592 201.371 16.6135C201.043 16.4677 200.68 16.4183 200.324 16.4711C198.558 16.4711 197.54 17.7058 197.54 19.7636L197.746 28.2064ZM112.196 28.2064H105.6V9.88323H111.99V12.867H112.093C112.659 11.7956 113.527 10.9129 114.589 10.3279C115.652 9.74286 116.862 9.481 118.072 9.57457C120.441 9.57457 122.092 10.1919 123.123 11.4266C124.174 13.0031 124.647 14.8945 124.462 16.7798V28.2064H117.854V17.8087C117.94 16.8881 117.762 15.9619 117.339 15.1394C117.103 14.8222 116.79 14.5706 116.429 14.4085C116.068 14.2464 115.672 14.1793 115.278 14.2134C113.321 14.2134 112.291 15.451 112.291 17.9204L112.187 28.2093L112.196 28.2064ZM16.7507 28.2064H10.1543V9.88323H16.5446V12.867H16.6476C17.2138 11.7956 18.0815 10.9129 19.1437 10.3279C20.206 9.74286 21.4164 9.481 22.6259 9.57457C24.9807 9.57457 26.6437 10.1919 27.6769 11.4266C28.7285 13.0031 29.2017 14.8945 29.0162 16.7798V28.2064H22.4198V17.8087C22.5079 16.8851 22.3292 15.9558 21.9047 15.1306C21.6682 14.8142 21.355 14.5633 20.9945 14.4012C20.634 14.2392 20.2382 14.1716 19.8443 14.2046C17.8868 14.2046 16.8566 15.4422 16.8566 17.9115L16.7536 28.2005L16.7507 28.2064ZM151.984 28.2064H147.462V23.8821H151.998V28.2064H151.984ZM103.434 28.2064H96.8342V9.88323H103.431L103.434 28.2064ZM42.0029 28.2064H35.2005L28.7071 9.88323H35.3153L37.6701 17.8204C38.2882 20.084 38.8033 22.4534 38.8033 22.5563H38.9063C39.2183 21.01 39.5274 19.4666 39.9395 17.9233L42.2943 9.98612H48.6846L41.9999 28.224L42.0029 28.2064ZM7.67881 28.2064H0.876404V2.26355H7.67881V28.2064Z" fill="#808080"/>
<path d="M96.6311 7.92542L103.434 6.69074V0L96.6311 1.23467V7.92542Z" fill="#808080"/>
</svg>
