<svg width="30" height="34" viewBox="0 0 30 34" fill="none" xmlns="http://www.w3.org/2000/svg">
<path d="M28.3957 7.37031L16.6212 0.440541C16.1295 0.151958 15.5713 0 15.0031 0C14.4348 0 13.8767 0.151958 13.3849 0.440541L1.60434 7.37031C1.11631 7.65778 0.711277 8.07011 0.429733 8.56606C0.14819 9.06201 6.82216e-06 9.62421 0 10.1964V23.8005C6.82216e-06 24.3727 0.14819 24.9349 0.429733 25.4308C0.711277 25.9268 1.11631 26.3391 1.60434 26.6266L13.3849 33.5595C13.8767 33.848 14.4348 34 15.0031 34C15.5713 34 16.1295 33.848 16.6212 33.5595L28.3957 26.6297C28.8837 26.3422 29.2887 25.9299 29.5703 25.4339C29.8518 24.938 30 24.3758 30 23.8036V10.1964C30 9.62421 29.8518 9.06201 29.5703 8.56606C29.2887 8.07011 28.8837 7.65778 28.3957 7.37031ZM27.5412 22.5759C27.5415 23.1528 27.3909 23.7195 27.1048 24.2182C26.8186 24.7168 26.4071 25.1296 25.9123 25.4145L16.6059 30.7738C16.1212 31.0518 15.5738 31.1979 15.0169 31.1979C14.46 31.1979 13.9126 31.0518 13.4279 30.7738L4.09384 25.4114C3.59741 25.127 3.18441 24.7141 2.89711 24.2148C2.60981 23.7155 2.45853 23.1477 2.45876 22.5697V11.5456C2.45947 10.9724 2.6086 10.4094 2.89122 9.91289C3.17384 9.41639 3.58005 9.00381 4.06926 8.71638L13.391 3.26043C13.8809 2.97264 14.4369 2.82108 15.0031 2.82108C15.5692 2.82108 16.1253 2.97264 16.6151 3.26043L25.9307 8.71638C26.4204 9.00333 26.8269 9.41581 27.1096 9.91241C27.3923 10.409 27.5411 10.9723 27.5412 11.5456V22.5759Z" fill="#2C0ABE"/>
<path d="M15.0015 16.0979C15.8653 16.0979 16.7097 15.8382 17.4279 15.3517C18.1461 14.8652 18.7059 14.1737 19.0365 13.3646C19.367 12.5556 19.4535 11.6653 19.285 10.8064C19.1165 9.94755 18.7005 9.15861 18.0897 8.53938C17.479 7.92016 16.7008 7.49846 15.8536 7.32762C15.0064 7.15677 14.1282 7.24445 13.3302 7.57957C12.5322 7.9147 11.8501 8.4822 11.3702 9.21034C10.8903 9.93847 10.6342 10.7945 10.6342 11.6702C10.635 12.8443 11.0954 13.97 11.9142 14.8002C12.7331 15.6304 13.8435 16.0971 15.0015 16.0979ZM15.0015 8.80361C15.5615 8.80361 16.1089 8.97199 16.5745 9.28746C17.04 9.60293 17.4028 10.0513 17.617 10.5759C17.8312 11.1004 17.887 11.6776 17.7776 12.2344C17.6681 12.7911 17.3982 13.3025 17.002 13.7037C16.6058 14.1049 16.1012 14.378 15.5519 14.4883C15.0026 14.5987 14.4333 14.5414 13.9162 14.3238C13.399 14.1061 12.9571 13.7378 12.6464 13.2654C12.3358 12.7931 12.1703 12.2379 12.1709 11.6702C12.1717 10.9097 12.4703 10.1805 13.001 9.64303C13.5318 9.10552 14.2513 8.80361 15.0015 8.80361Z" fill="#2C0ABE"/>
<path d="M15.0015 18.3071C11.0583 18.3071 7.84961 20.9338 7.84961 24.1618H9.38634C9.38634 21.7938 11.9035 19.865 15.0015 19.865C18.0996 19.865 20.6167 21.7938 20.6167 24.1618H22.1535C22.1535 20.9338 18.9448 18.3071 15.0015 18.3071Z" fill="#2C0ABE"/>
</svg>
