<svg width="34" height="34" viewBox="0 0 34 34" fill="none" xmlns="http://www.w3.org/2000/svg">
<path d="M23.9996 0H10.0004C7.34913 0.00333218 4.80743 1.05781 2.93272 2.93218C1.05801 4.80654 0.0033328 7.34777 0 9.99852V24.0015C0.0033328 26.6522 1.05801 29.1935 2.93272 31.0678C4.80743 32.9422 7.34913 33.9967 10.0004 34H23.9996C26.6509 33.9967 29.1926 32.9422 31.0673 31.0678C32.942 29.1935 33.9967 26.6522 34 24.0015V9.99852C33.9967 7.34777 32.942 4.80654 31.0673 2.93218C29.1926 1.05781 26.6509 0.00333218 23.9996 0ZM31.481 24.0015C31.4785 25.9845 30.6895 27.8856 29.287 29.2879C27.8845 30.6901 25.983 31.479 23.9996 31.4815H10.0004C8.01695 31.479 6.11548 30.6901 4.71299 29.2879C3.3105 27.8856 2.52148 25.9845 2.51899 24.0015V9.99852C2.52148 8.01547 3.3105 6.11436 4.71299 4.71212C6.11548 3.30989 8.01695 2.52102 10.0004 2.51852H23.9996C25.983 2.52102 27.8845 3.30989 29.287 4.71212C30.6895 6.11436 31.4785 8.01547 31.481 9.99852V24.0015Z" fill="#2C0ABE"/>
<path d="M20.1393 17.0661C19.3313 16.701 18.4869 16.4224 17.6203 16.235V10.2881C17.906 10.3442 18.1863 10.4253 18.4578 10.5305C19.0277 10.7485 19.519 11.1323 19.8685 11.6324C20.2379 12.2177 20.4181 12.9024 20.3849 13.5937V14.0848C20.3849 14.2209 20.4389 14.3514 20.5352 14.4476C20.6315 14.5439 20.762 14.5979 20.8981 14.5979H21.8711C22.0039 14.5979 22.1312 14.5452 22.2251 14.4513C22.319 14.3574 22.3717 14.2301 22.3717 14.0974V13.5937C22.4104 12.582 22.1343 11.5833 21.5814 10.7352C21.0465 9.97176 20.3079 9.37398 19.4497 9.00996C18.8648 8.75906 18.2482 8.58957 17.6171 8.50626V6.95737C17.6229 6.71271 17.5353 6.47504 17.3721 6.29261C17.209 6.11018 16.9825 5.99668 16.7386 5.97515C16.6141 5.96962 16.4897 5.98938 16.373 6.03326C16.2563 6.07713 16.1497 6.1442 16.0597 6.23041C15.9696 6.31662 15.898 6.42018 15.8491 6.53485C15.8002 6.64951 15.775 6.7729 15.7751 6.89756V8.43385C14.9807 8.47613 14.1992 8.65284 13.464 8.95645C12.6667 9.28371 11.978 9.82932 11.4771 10.5305C10.9887 11.2488 10.7376 12.102 10.7592 12.9703C10.7229 13.7864 10.9431 14.5934 11.3889 15.2779C11.8434 15.9021 12.449 16.4004 13.1491 16.7261C13.9772 17.1262 14.8432 17.4426 15.7342 17.6705H15.7814V23.9983C14.9735 23.8932 14.2106 23.5663 13.5773 23.0539C12.7649 22.3802 12.3588 21.3518 12.3588 19.9687C12.3579 19.8325 12.3037 19.7022 12.2077 19.6056C12.1117 19.509 11.9817 19.454 11.8455 19.4524H10.8379C10.7021 19.454 10.5723 19.5092 10.4768 19.6058C10.3814 19.7024 10.3278 19.8328 10.3278 19.9687C10.2869 21.1092 10.5731 22.2376 11.1528 23.2207C11.6935 24.0833 12.4812 24.7634 13.4136 25.1726C14.1543 25.4992 14.9435 25.7023 15.7499 25.7739V27.2692C15.745 27.5133 15.833 27.7502 15.9961 27.932C16.1591 28.1138 16.3852 28.2268 16.6284 28.2483C16.7527 28.2538 16.8768 28.2341 16.9933 28.1905C17.1098 28.1468 17.2163 28.08 17.3063 27.9941C17.3963 27.9083 17.468 27.8051 17.5171 27.6908C17.5662 27.5765 17.5916 27.4534 17.5919 27.329V25.8148C18.361 25.7488 19.1141 25.5574 19.8212 25.2481C20.6668 24.8877 21.3929 24.2949 21.9152 23.5387C22.4184 22.7722 22.6765 21.8707 22.6551 20.954C22.6947 20.0998 22.456 19.2559 21.975 18.5489C21.4992 17.9065 20.8674 17.3961 20.1393 17.0661ZM15.7594 15.7627C15.2901 15.6356 14.8303 15.4757 14.3834 15.2842C13.91 15.0939 13.4936 14.7849 13.1743 14.387C12.8796 13.968 12.7323 13.4631 12.7555 12.9514C12.737 12.5499 12.8195 12.1502 12.9955 11.7888C13.1715 11.4275 13.4355 11.1161 13.7631 10.8831C14.3545 10.4748 15.0454 10.2344 15.7625 10.1874L15.7594 15.7627ZM19.6607 23.2018C19.0731 23.6723 18.3604 23.9602 17.6108 24.0298V18.1585C18.0623 18.2808 18.506 18.4301 18.9396 18.6055C19.4376 18.7932 19.8812 19.1015 20.2306 19.5027C20.5525 19.9279 20.7141 20.453 20.6871 20.9855C20.694 21.4084 20.6053 21.8273 20.4275 22.2111C20.2498 22.5949 19.9876 22.9335 19.6607 23.2018Z" fill="#2C0ABE"/>
</svg>
