<svg width="34" height="34" viewBox="0 0 34 34" fill="none" xmlns="http://www.w3.org/2000/svg">
<path d="M31.8809 12.5188C31.8809 9.92954 30.8406 7.44634 28.9887 5.61545C27.1368 3.78457 24.6252 2.75598 22.0063 2.75598C19.3874 2.75598 16.8757 3.78457 15.0239 5.61545C13.172 7.44634 12.1316 9.92954 12.1316 12.5188C12.1316 12.6098 12.1316 12.6977 12.1316 12.7856H11.8832C9.93022 12.7856 8.02107 13.3582 6.39719 14.4309C4.77332 15.5037 3.50766 17.0284 2.76027 18.8124C2.01288 20.5963 1.81733 22.5593 2.19835 24.4531C2.57936 26.3469 3.51983 28.0864 4.90082 29.4518C6.28181 30.8171 8.04131 31.747 9.9568 32.1237C11.8723 32.5004 13.8578 32.307 15.6621 31.5681C17.4665 30.8292 19.0087 29.5779 20.0937 27.9724C21.1787 26.3669 21.7579 24.4793 21.7579 22.5484C21.7579 22.4605 21.7579 22.3726 21.7579 22.2816H22.0063C24.6245 22.2792 27.1347 21.2499 28.986 19.4195C30.8373 17.5891 31.8785 15.1073 31.8809 12.5188ZM11.8894 30.486C10.3003 30.486 8.74686 30.0201 7.42557 29.1473C6.10428 28.2744 5.07446 27.0338 4.46633 25.5823C3.85821 24.1308 3.6991 22.5336 4.00912 20.9926C4.31913 19.4517 5.08436 18.0363 6.20803 16.9253C7.33169 15.8144 8.76333 15.0579 10.3219 14.7513C11.8805 14.4448 13.496 14.6021 14.9641 15.2034C16.4322 15.8046 17.6871 16.8228 18.5699 18.1291C19.4528 19.4354 19.924 20.9713 19.924 22.5424C19.9216 24.6484 19.0743 26.6675 17.568 28.1567C16.0618 29.6459 14.0196 30.4836 11.8894 30.486ZM21.534 20.4473C21.1254 18.6255 20.1989 16.9571 18.8634 15.6384C17.528 14.3197 15.8393 13.4057 13.9962 13.0039C13.9962 12.8432 13.9747 12.6825 13.9747 12.5188C13.9747 10.9477 14.4459 9.41187 15.3288 8.10554C16.2116 6.79922 17.4665 5.78105 18.9346 5.17981C20.4028 4.57858 22.0183 4.42127 23.5768 4.72777C25.1354 5.03428 26.567 5.79084 27.6907 6.90178C28.8144 8.01272 29.5796 9.42816 29.8896 10.9691C30.1996 12.51 30.0405 14.1072 29.4324 15.5587C28.8243 17.0102 27.7944 18.2509 26.4732 19.1237C25.1519 19.9966 23.5985 20.4625 22.0094 20.4625C21.8468 20.4625 21.6904 20.4473 21.534 20.4473Z" fill="#2C0ABE"/>
<path d="M8.59278 2.86214L7.74331 3.69896H9.33185L11.2056 1.84948L9.33185 0H7.74331L8.76144 1.00357C6.35206 1.27784 4.12852 2.41758 2.51328 4.20626C0.898034 5.99494 0.00362911 8.30791 0 10.7057H1.83999C1.84206 8.81902 2.52228 6.99442 3.75921 5.55767C4.99614 4.12093 6.70928 3.16557 8.59278 2.86214Z" fill="#2C0ABE"/>
<path d="M34 23.4519H32.16C32.1538 25.1014 31.631 26.7084 30.6634 28.0522C29.6958 29.3959 28.331 30.4103 26.7565 30.9559L27.422 30.1828L25.8396 30.3101L24.1161 32.3051L26.134 34L27.7195 33.8696L26.5695 32.9085C28.6904 32.3648 30.5696 31.1421 31.9138 29.4314C33.258 27.7207 33.9916 25.6182 34 23.4519Z" fill="#2C0ABE"/>
<path d="M14.7874 22.8395C14.5826 22.7073 14.3595 22.6052 14.125 22.5363V22.2907C14.3533 22.215 14.5692 22.1067 14.7659 21.9694C15.0083 21.8035 15.2088 21.5846 15.3516 21.3296C15.5299 21.0013 15.6157 20.6317 15.6 20.2594V20.1229C15.6135 19.6658 15.4862 19.2154 15.2351 18.8313C14.9812 18.4644 14.627 18.1762 14.2139 18.0006C13.7307 17.7921 13.2078 17.6887 12.6806 17.6974H12.6254V16.0905H10.7455V17.7186H7.70953V19.3013H8.97606V25.6865H7.70953V27.2692H10.7455V28.8761H12.6193V27.2692H12.7327C13.2601 27.2802 13.7835 27.1767 14.266 26.966C14.6856 26.7804 15.0422 26.4794 15.2934 26.0989C15.5506 25.6935 15.6808 25.2219 15.6675 24.7436V24.6071C15.6849 24.222 15.5958 23.8394 15.4099 23.5005C15.2591 23.2339 15.0456 23.0072 14.7874 22.8395ZM10.8007 19.3407H12.4813C12.8171 19.3252 13.1481 19.4236 13.4196 19.6196C13.5391 19.7156 13.6339 19.8381 13.6962 19.9773C13.7586 20.1164 13.7868 20.2681 13.7785 20.4201V20.5565C13.7873 20.7091 13.7588 20.8616 13.6952 21.0009C13.6317 21.1403 13.5351 21.2624 13.4135 21.3569C13.1486 21.5526 12.8241 21.6532 12.4935 21.6419H10.813L10.8007 19.3407ZM13.8336 24.5132C13.843 24.6685 13.8147 24.8237 13.7513 24.9661C13.6878 25.1084 13.5909 25.2338 13.4687 25.3318C13.1923 25.5326 12.8545 25.6332 12.5119 25.6168H10.8007V23.2701H12.5119C12.857 23.2528 13.1973 23.3547 13.4748 23.5581C13.5952 23.6573 13.6903 23.7831 13.7527 23.9253C13.815 24.0674 13.8427 24.222 13.8336 24.3767V24.5132Z" fill="#2C0ABE"/>
</svg>
