<svg width="166" height="36" viewBox="0 0 166 36" fill="none" xmlns="http://www.w3.org/2000/svg">
<path d="M56.88 35L53.2 7H58.44L61.16 31.32H61.88L65.4 7H74.52L78.04 31.32H78.76L81.48 7H86.72L83.04 35H73.92L70.32 10.12H69.6L66 35H56.88ZM96.6631 35.56C95.2498 35.56 93.9831 35.32 92.8631 34.84C91.7431 34.3333 90.8498 33.6133 90.1831 32.68C89.5431 31.72 89.2231 30.56 89.2231 29.2C89.2231 27.84 89.5431 26.7067 90.1831 25.8C90.8498 24.8667 91.7565 24.1733 92.9031 23.72C94.0765 23.24 95.4098 23 96.9031 23H102.343V21.88C102.343 20.9467 102.05 20.1867 101.463 19.6C100.876 18.9867 99.9431 18.68 98.6631 18.68C97.4098 18.68 96.4765 18.9733 95.8631 19.56C95.2498 20.12 94.8498 20.8533 94.6631 21.76L90.0231 20.2C90.3431 19.1867 90.8498 18.2667 91.5431 17.44C92.2631 16.5867 93.2098 15.9067 94.3831 15.4C95.5831 14.8667 97.0365 14.6 98.7431 14.6C101.356 14.6 103.423 15.2533 104.943 16.56C106.463 17.8667 107.223 19.76 107.223 22.24V29.64C107.223 30.44 107.596 30.84 108.343 30.84H109.943V35H106.583C105.596 35 104.783 34.76 104.143 34.28C103.503 33.8 103.183 33.16 103.183 32.36V32.32H102.423C102.316 32.64 102.076 33.0667 101.703 33.6C101.33 34.1067 100.743 34.56 99.9431 34.96C99.1431 35.36 98.0498 35.56 96.6631 35.56ZM97.5431 31.48C98.9565 31.48 100.103 31.0933 100.983 30.32C101.89 29.52 102.343 28.4667 102.343 27.16V26.76H97.2631C96.3298 26.76 95.5965 26.96 95.0631 27.36C94.5298 27.76 94.2631 28.32 94.2631 29.04C94.2631 29.76 94.5431 30.3467 95.1031 30.8C95.6631 31.2533 96.4765 31.48 97.5431 31.48ZM113.628 35V7H118.668V35H113.628ZM124.253 35V7H129.293V35H124.253ZM134.718 35V7H152.318V11.8H139.998V18.56H151.358V23.36H139.998V35H134.718ZM156.245 35V15.16H161.285V35H156.245ZM158.765 12.84C157.859 12.84 157.085 12.5467 156.445 11.96C155.832 11.3733 155.525 10.6 155.525 9.64C155.525 8.68 155.832 7.90667 156.445 7.32C157.085 6.73333 157.859 6.44 158.765 6.44C159.699 6.44 160.472 6.73333 161.085 7.32C161.699 7.90667 162.005 8.68 162.005 9.64C162.005 10.6 161.699 11.3733 161.085 11.96C160.472 12.5467 159.699 12.84 158.765 12.84Z" fill="white"/>
<path d="M37 8.82422C37 8.11855 36.6927 7.44178 36.1458 6.9428C35.5988 6.44382 34.857 6.16349 34.0835 6.16349H30.1423L25.4129 0.921135C25.1795 0.660044 24.8908 0.444628 24.564 0.287784C24.2372 0.130939 23.8791 0.0359032 23.5111 0.00837182C23.143 -0.0191595 22.7727 0.0213772 22.4223 0.127559C22.0718 0.23374 21.7485 0.40337 21.4717 0.626295L14.5273 6.16349H2.9165C2.143 6.16349 1.40117 6.44382 0.854224 6.9428C0.307276 7.44178 0 8.11855 0 8.82422V32.3465C-1.40504e-06 32.6955 0.0754858 33.0412 0.22215 33.3636C0.368813 33.686 0.58378 33.9788 0.854705 34.2253C1.12563 34.4718 1.44719 34.6671 1.80099 34.8001C2.15479 34.933 2.53387 35.0009 2.9165 35H34.052C34.8241 35 35.5648 34.7207 36.1115 34.2232C36.6582 33.7258 36.9664 33.0509 36.9685 32.3465V23.5517C36.9921 19.201 37 13.1317 37 8.82422ZM23.1585 4.07086L25.0424 6.16349H20.5337L23.1585 4.07086ZM33.0509 23.5517H26.3745C25.6497 23.531 24.9634 23.2493 24.4656 22.7682C23.9678 22.2871 23.699 21.6458 23.7182 20.9844V20.1719C23.7114 19.5151 23.9847 18.8816 24.4803 18.4052C24.976 17.9289 25.6552 17.6469 26.3745 17.619H33.0509V23.5517ZM33.0509 14.0234H26.3745C24.6093 14.0461 22.9253 14.7043 21.6896 15.8546C20.4538 17.0049 19.7664 18.5541 19.777 20.1647C19.3986 23.8249 22.3387 27.1616 26.3745 27.1472H33.0509V31.4044H3.96485V9.75906H33.0509V14.0234Z" fill="white"/>
</svg>
